<?xml version="1.0" encoding="UTF-8"?>
<svg id="Layer_2" data-name="Layer 2" xmlns="http://www.w3.org/2000/svg" viewBox="0 0 67.56 42.52">
  <defs>
    <style>
      .cls-1 {
        fill: #666767;
      }
    </style>
  </defs>
  <g id="Layer_1-2" data-name="Layer 1">
    <g>
      <path class="cls-1" d="M54.97,32.45c-.89,1.05-1.8,1.9-2.69,2.95-.73.87-2.06,1.99-3.19,2.53-1.61.77-2.97.73-3.68-.13-.64-.79-.56-2.15-.33-3.12.18-.73.36-1.45.57-2.17.15-.55.33-1.09.48-1.64.06-.25.13-.5.2-.75q.06-.23.21-.79c.17-.62.34-1.24.51-1.86.16-.58.1-.43.48-1.78.67-2.5,1.37-5.01,1.96-7.53.28-1.21.42-2.23.42-3.06,0-1.99-.63-3.44-1.88-4.35-1.25-.9-2.76-1.36-4.52-1.36-2.46,0-4.68.72-6.65,2.16-1.97,1.44-3.63,3.06-4.98,4.87h-.4c.22-1.92-.05-3.49-.82-4.7-1-1.55-2.82-2.33-5.46-2.33-2.46,0-4.67.72-6.65,2.16-1.97,1.44-3.63,3.06-4.97,4.87h-.21l1.53-6.19H.91v1.74h6.13L0,41.55h7.17l4.15-16.84c.64-2.23,1.47-4.26,2.56-6.06,1.19-1.95,2.48-3.49,3.9-4.63,1.41-1.14,2.79-1.7,4.14-1.7.74,0,1.36.19,1.84.56.49.37.73,1,.73,1.88,0,.28-.03.56-.07.83-.05.28-.12.61-.21.97l-5.98,24.98h7.24l4-16.37c.65-2.42,1.55-4.6,2.72-6.52,1.18-1.95,2.48-3.49,3.9-4.63,1.41-1.14,2.79-1.7,4.14-1.7.74,0,1.36.19,1.84.56.49.37.73,1,.73,1.88,0,.28-.02.56-.07.83s-.12.61-.21.97l-.05.22-.81,3.39c-.46,1.91-.91,3.82-1.37,5.73-.46,1.92-.92,3.85-1.38,5.77-.43,1.81-1.04,3.68-1.16,5.54-.09,1.46.3,2.9,1.39,3.92,1.3,1.2,3.2,1.52,5.06,1.34,3.41-.32,5.74-2.16,7.95-4.75,2.42-2.84,4.5-5.96,6.69-8.98.69-.95,1.38-1.91,2.06-2.87l.1-.41c-2.05,2.38-4.74,5.46-6.04,7Z"/>
      <path class="cls-1" d="M67.56,9.42c-5.29,0-6.39,4.18-6.58,9.37-.19-5.19-1.29-9.37-6.53-9.37,5.29,0,6.34-4.18,6.53-9.42.19,5.24,1.25,9.42,6.58,9.42Z"/>
    </g>
  </g>
</svg>